<?xml version="1.0" encoding="UTF-8" standalone="no"?>
<svg
   xmlns:dc="http://purl.org/dc/elements/1.1/"
   xmlns:cc="http://creativecommons.org/ns#"
   xmlns:rdf="http://www.w3.org/1999/02/22-rdf-syntax-ns#"
   xmlns:svg="http://www.w3.org/2000/svg"
   xmlns="http://www.w3.org/2000/svg"
   xmlns:sodipodi="http://sodipodi.sourceforge.net/DTD/sodipodi-0.dtd"
   xmlns:inkscape="http://www.inkscape.org/namespaces/inkscape"
   width="100"
   height="100"
   version="1.1"
   viewBox="0 0 26.458333 26.458334"
   id="svg8"
   sodipodi:docname="logo.svg"
   inkscape:version="0.92.4 (33fec40, 2019-01-16)">
  <defs
     id="defs12" />
  <sodipodi:namedview
     pagecolor="#ffffff"
     bordercolor="#666666"
     borderopacity="1"
     objecttolerance="10"
     gridtolerance="10"
     guidetolerance="10"
     inkscape:pageopacity="0"
     inkscape:pageshadow="2"
     inkscape:window-width="1920"
     inkscape:window-height="1029"
     id="namedview10"
     showgrid="false"
     inkscape:snap-page="true"
     inkscape:zoom="4.72"
     inkscape:cx="57.970565"
     inkscape:cy="47.54426"
     inkscape:window-x="0"
     inkscape:window-y="25"
     inkscape:window-maximized="1"
     inkscape:current-layer="svg8" />
  <metadata
     id="metadata2">
    <rdf:RDF>
      <cc:Work
         rdf:about="">
        <dc:format>image/svg+xml</dc:format>
        <dc:type
           rdf:resource="http://purl.org/dc/dcmitype/StillImage" />
        <dc:title />
      </cc:Work>
    </rdf:RDF>
  </metadata>
  <circle
     style="opacity:1;fill:#d40000;fill-opacity:1;stroke:none;stroke-width:0.04;stroke-linecap:round;stroke-linejoin:round;stroke-miterlimit:4;stroke-dasharray:none;stroke-dashoffset:0;stroke-opacity:1;paint-order:fill markers stroke"
     id="path822"
     cx="13.229166"
     cy="13.229166"
     r="13.229166" />
  <path
     sodipodi:type="spiral"
     style="fill:none;fill-rule:evenodd;stroke:#ffffff;stroke-width:0.26458332"
     id="path824"
     sodipodi:cx="13.621556"
     sodipodi:cy="13.733668"
     sodipodi:expansion="1"
     sodipodi:revolution="15.9"
     sodipodi:radius="12.812152"
     sodipodi:argument="-17.8522"
     sodipodi:t0="0"
     d="m 13.621556,13.733668 c 0.06576,0.101816 -0.104804,0.138871 -0.169225,0.109291 -0.174576,-0.08016 -0.153515,-0.321331 -0.04936,-0.447741 0.186315,-0.226118 0.534373,-0.182406 0.726258,0.01058 0.281599,0.283211 0.212837,0.750551 -0.07051,1.004774 -0.377659,0.338839 -0.967876,0.243965 -1.28329,-0.130445 -0.396917,-0.471158 -0.275463,-1.185754 0.190379,-1.561806 0.564196,-0.455449 1.403946,-0.307175 1.840322,0.250313 0.514254,0.65698 0.339022,1.622334 -0.310247,2.118838 -0.749607,0.573233 -1.840854,0.37096 -2.397355,-0.370181 -0.632331,-0.842132 -0.402961,-2.059464 0.430116,-2.675871 0.934585,-0.691515 2.278141,-0.435008 2.954386,0.49005 0.750761,1.026988 0.467089,2.496869 -0.549983,3.232903 -1.119354,0.810053 -2.715635,0.499195 -3.511419,-0.609918 -0.869382,-1.21169 -0.531324,-2.934432 0.669851,-3.789935 1.304004,-0.92874 3.153254,-0.563468 4.068452,0.729785 0.988121,1.3963 0.595625,3.372095 -0.78972,4.346968 -1.48858,1.047521 -3.590952,0.627793 -4.625483,-0.849653 -1.1069365,-1.580851 -0.659971,-3.809825 0.909587,-4.904 1.67311,-1.1663651 4.028707,-0.6921555 5.182516,0.969521 1.225804,1.765361 0.724347,4.2476 -1.029455,5.461032 -1.857606,1.285253 -4.466501,0.756543 -5.739549,-1.089389 -1.3447097,-1.949844 -0.7887445,-4.68541 1.149324,-6.018065 2.042076,-1.4041736 4.904324,-0.8209502 6.296581,1.209258 1.463643,2.134305 0.853159,5.123244 -1.269192,6.575097 -2.22653,1.523119 -5.34217,0.885372 -6.8536132,-1.329126 -1.582599,-2.318751 -0.9175873,-5.561099 1.3890592,-7.1321293 2.41097,-1.6420831 5.780033,-0.949805 7.410646,1.4489933 1.701571,2.503186 0.982025,5.99897 -1.508928,7.689162 -2.595398,1.761062 -6.217909,1.014247 -7.9676776,-1.568862 C 6.8934722,14.2155 7.6675578,10.466257 10.342824,8.6569153 c 2.779819,-1.8800529 6.655797,-1.0786959 8.52471,1.6887297 1.939552,2.872026 1.110923,6.874745 -1.748663,8.803227 -2.964232,1.999053 -7.093695,1.14315 -9.081743,-1.808598 C 5.9785712,14.283838 6.8617479,10.027628 9.9056598,7.980015 13.054299,5.861953 17.437259,6.7724044 19.544435,9.9084807 21.722004,13.149322 20.784277,17.659035 17.556035,19.825772 14.222993,22.062849 9.5865249,21.097846 7.3602276,17.777438 5.0636408,14.352197 6.0559201,9.5889705 9.4684955,7.3031146 12.985936,4.9470167 17.875922,5.9665731 20.221335,9.4713164 22.636945,13.080955 21.590111,18.097703 17.993199,20.502672 14.291364,22.977796 9.1478519,21.903684 6.6833272,18.214602 4.1486894,14.42057 5.2500797,9.150293 9.0313312,6.6262142 12.917559,4.0320611 18.314603,5.16073 20.898236,9.0341521 23.551905,13.012575 22.395957,18.536388 18.430364,21.179573 14.359746,23.892759 8.709163,22.709532 6.0064268,18.651767 3.2337228,14.488955 4.4442299,8.7116008 8.5941669,5.9493138 12.849172,3.1170912 18.753299,4.3548783 21.575136,8.5969878 24.466878,12.944186 23.20181,18.975086 18.867528,21.856473 14.428137,24.807735 8.2704621,23.515387 5.3295264,19.088931 2.3187445,14.557348 3.6383729,8.2728973 8.1570026,5.2724134 12.780777,2.2021105 19.192005,3.5490198 22.252036,8.1598235 25.381861,12.87579 24.00767,19.413794 19.304692,22.533373 14.496535,25.72272 7.8317518,24.321248 4.652626,19.526095 1.4037573,14.625747 2.8325105,7.8341851 7.7198383,4.595513 12.712377,1.2871213 19.630719,2.7431562 22.928937,7.7226593 26.296852,12.807388 24.813535,19.85251 19.741856,23.210274 14.564938,26.637713 7.3930342,25.127114 3.9757256,19.96326 0.48876293,14.694152 2.0266437,7.3954659 7.282674,3.9186126 12.643971,0.37212546 20.069439,1.9372884 23.605837,7.285495 27.211849,12.738981 25.619404,20.291233 20.179021,23.887174 14.633346,27.552711 6.9543107,25.932983 3.2988252,20.400424 -0.42623711,14.76256 1.2207733,6.956741 6.8455097,3.2417122 12.575562,-0.54287584 20.508166,1.1314173 24.282738,6.8483307 26.513349,10.226783 26.99293,14.566716 25.571139,18.355216" />
</svg>
